<svg xmlns="http://www.w3.org/2000/svg" viewBox="0 0 1200 800" width="1200" height="800">
  <!-- 배경 -->
  <rect width="1200" height="800" fill="#ffffff" />
  
  <!-- 중앙 컨텐츠 영역 -->
  <rect x="300" y="100" width="600" height="600" rx="8" fill="#ffffff" />
  
  <!-- 로고 영역 -->
  <g transform="translate(570, 300)">
    <!-- 민트색 로고 배경 -->
    <path d="M30,0 L30,0 C46.5685,0 60,13.4315 60,30 L60,30 C60,46.5685 46.5685,60 30,60 L30,60 C13.4315,60 0,46.5685 0,30 L0,30 C0,13.4315 13.4315,0 30,0 Z" fill="#5DC2BA" />
    <!-- 십자가 심볼 -->
    <path d="M42,24 L36,24 L36,18 C36,16.8954 35.1046,16 34,16 L26,16 C24.8954,16 24,16.8954 24,18 L24,24 L18,24 C16.8954,24 16,24.8954 16,26 L16,34 C16,35.1046 16.8954,36 18,36 L24,36 L24,42 C24,43.1046 24.8954,44 26,44 L34,44 C35.1046,44 36,43.1046 36,42 L36,36 L42,36 C43.1046,36 44,35.1046 44,34 L44,26 C44,24.8954 43.1046,24 42,24 Z" fill="white" />
  </g>
  
  <!-- 서비스명 -->
  <text x="600" y="410" font-family="Arial, sans-serif" font-size="32" font-weight="bold" fill="#333333" text-anchor="middle">양방향 급여 매칭</text>
  <text x="600" y="450" font-family="Arial, sans-serif" font-size="32" font-weight="bold" fill="#333333" text-anchor="middle">서비스</text>
  
  <!-- 푸터 -->
  <text x="600" y="750" font-family="Arial, sans-serif" font-size="14" fill="#888888" text-anchor="middle">© 2025 양방향 급여 매칭 서비스</text>
</svg>
