<svg xmlns="http://www.w3.org/2000/svg" viewBox="0 0 1200 800" width="1200" height="800">
  <!-- 배경 -->
  <rect width="1200" height="800" fill="#f8f9fa" />
  
  <!-- 로그인 카드 - 더 길게 확장하여 회원가입 링크까지 포함 -->
  <rect x="300" y="100" width="600" height="700" rx="8" fill="#ffffff" filter="drop-shadow(0 4px 12px rgba(0, 0, 0, 0.05))" />
  
  <!-- 로고 영역 -->
  <g transform="translate(570, 150)">
    <!-- 민트색 로고 배경 -->
    <path d="M30,0 L30,0 C46.5685,0 60,13.4315 60,30 L60,30 C60,46.5685 46.5685,60 30,60 L30,60 C13.4315,60 0,46.5685 0,30 L0,30 C0,13.4315 13.4315,0 30,0 Z" fill="#5DC2BA" />
    <!-- 십자가 심볼 -->
    <path d="M42,24 L36,24 L36,18 C36,16.8954 35.1046,16 34,16 L26,16 C24.8954,16 24,16.8954 24,18 L24,24 L18,24 C16.8954,24 16,24.8954 16,26 L16,34 C16,35.1046 16.8954,36 18,36 L24,36 L24,42 C24,43.1046 24.8954,44 26,44 L34,44 C35.1046,44 36,43.1046 36,42 L36,36 L42,36 C43.1046,36 44,35.1046 44,34 L44,26 C44,24.8954 43.1046,24 42,24 Z" fill="white" />
  </g>
  
  <!-- 서비스명 -->
  <text x="600" y="250" font-family="Arial, sans-serif" font-size="28" font-weight="bold" fill="#333333" text-anchor="middle">양방향 급여 매칭</text>
  <text x="600" y="290" font-family="Arial, sans-serif" font-size="28" font-weight="bold" fill="#333333" text-anchor="middle">서비스</text>
  
  <!-- 서비스 설명 -->
  <text x="600" y="330" font-family="Arial, sans-serif" font-size="14" fill="#777777" text-anchor="middle">"구직자와 기업이 직접 제안하는</text>
  <text x="600" y="350" font-family="Arial, sans-serif" font-size="14" fill="#777777" text-anchor="middle">새로운 급여 매칭 플랫폼"</text>
  
  <!-- 회원 유형 선택 탭 -->
  <rect x="350" y="380" width="500" height="40" rx="20" fill="#f0f2f5" />
  <rect x="350" y="380" width="250" height="40" rx="20" fill="#ffffff" filter="drop-shadow(0 1px 3px rgba(0, 0, 0, 0.08))" />
  <text x="475" y="405" font-family="Arial, sans-serif" font-size="14" fill="#333333" text-anchor="middle">개인회원</text>
  <text x="725" y="405" font-family="Arial, sans-serif" font-size="14" fill="#999999" text-anchor="middle">기업회원</text>
  
  <!-- 입력 필드: 이메일 (입력된 상태) -->
  <text x="350" y="450" font-family="Arial, sans-serif" font-size="14" fill="#555555">Email</text>
  <rect x="350" y="460" width="500" height="50" rx="4" fill="#ffffff" stroke="#e0e4e8" stroke-width="1" />
  <text x="370" y="490" font-family="Arial, sans-serif" font-size="14" fill="#333333">user@example.com</text>
  
  <!-- 입력 필드: 비밀번호 (입력된 상태) -->
  <text x="350" y="530" font-family="Arial, sans-serif" font-size="14" fill="#555555">Password</text>
  <rect x="350" y="540" width="500" height="50" rx="4" fill="#ffffff" stroke="#e0e4e8" stroke-width="1" />
  <text x="370" y="570" font-family="Arial, sans-serif" font-size="14" fill="#333333">••••••••</text>
  <!-- 비밀번호 표시/숨김 아이콘 -->
  <circle cx="830" cy="565" r="12" fill="#ffffff" stroke="#e0e4e8" stroke-width="1" />
  <path d="M825,565 L835,565" stroke="#bbbbbb" stroke-width="2" />
  
  <!-- 로그인 옵션 (Remember me 체크됨) -->
  <rect x="350" y="605" width="18" height="18" rx="3" fill="#5DC2BA" stroke="#5DC2BA" stroke-width="1" />
  <path d="M354,613 L358,617 L364,609" stroke="white" stroke-width="2" fill="none" />
  <text x="380" y="620" font-family="Arial, sans-serif" font-size="14" fill="#555555">Remember me</text>
  <text x="770" y="620" font-family="Arial, sans-serif" font-size="14" fill="#5DC2BA">Forgot Password?</text>
  
  <!-- 로그인 버튼 (활성화된 상태) -->
  <rect x="350" y="650" width="500" height="50" rx="4" fill="#5DC2BA" />
  <text x="600" y="680" font-family="Arial, sans-serif" font-size="16" fill="#ffffff" text-anchor="middle">로그인</text>
  
  <!-- 소셜 로그인 -->
  <text x="600" y="720" font-family="Arial, sans-serif" font-size="14" fill="#777777" text-anchor="middle">Or login with</text>
  
  <!-- 소셜 로그인 버튼 -->
  <rect x="350" y="730" width="110" height="40" rx="4" fill="#ffffff" stroke="#e0e4e8" stroke-width="1" />
  <text x="405" y="755" font-family="Arial, sans-serif" font-size="14" fill="#03C75A" text-anchor="middle">N</text>
  
  <rect x="480" y="730" width="110" height="40" rx="4" fill="#ffffff" stroke="#e0e4e8" stroke-width="1" />
  <circle cx="535" cy="750" r="15" fill="#FEE500" />
  <text x="535" y="755" font-family="Arial, sans-serif" font-size="14" fill="#3A1D1D" text-anchor="middle">K</text>
  
  <rect x="610" y="730" width="110" height="40" rx="4" fill="#ffffff" stroke="#e0e4e8" stroke-width="1" />
  <text x="665" y="755" font-family="Arial, sans-serif" font-size="16" fill="#000000" text-anchor="middle">⍟</text>
  
  <rect x="740" y="730" width="110" height="40" rx="4" fill="#ffffff" stroke="#e0e4e8" stroke-width="1" />
  <text x="795" y="755" font-family="Arial, sans-serif" font-size="14" fill="#4285F4" text-anchor="middle">G</text>
  
  <!-- 회원가입 링크 - 이제 흰색 배경 내부에 위치 -->
  <text x="550" y="790" font-family="Arial, sans-serif" font-size="14" fill="#555555" text-anchor="middle">Don't have an account yet?</text>
  <text x="680" y="790" font-family="Arial, sans-serif" font-size="14" fill="#5DC2BA" text-anchor="middle">Sign up</text>
  
  <!-- 하단 밑줄 -->
  <rect x="550" y="800" width="100" height="2" fill="#000000" />
</svg>